<mxfile host="65bd71144e" pages="4">
    <diagram name="Page-1" id="s1eCa0FR0YmJ9Bl8hFRi">
        <mxGraphModel dx="613" dy="434" grid="1" gridSize="10" guides="1" tooltips="1" connect="1" arrows="1" fold="1" page="1" pageScale="1" pageWidth="850" pageHeight="1100" math="0" shadow="0">
            <root>
                <mxCell id="0"/>
                <mxCell id="1" parent="0"/>
                <mxCell id="syGjKZxySs55ZjiHOy2U-2" value="&lt;div&gt;MFE-Container&lt;/div&gt;(Handling the authetication flow)" style="rounded=1;whiteSpace=wrap;html=1;" parent="1" vertex="1">
                    <mxGeometry x="150" y="320" width="260" height="110" as="geometry"/>
                </mxCell>
                <mxCell id="syGjKZxySs55ZjiHOy2U-3" value="TOP BAR" style="rounded=0;whiteSpace=wrap;html=1;" parent="1" vertex="1">
                    <mxGeometry x="150" y="320" width="260" height="30" as="geometry"/>
                </mxCell>
                <mxCell id="syGjKZxySs55ZjiHOy2U-4" value="Footer" style="rounded=0;whiteSpace=wrap;html=1;" parent="1" vertex="1">
                    <mxGeometry x="150" y="400" width="260" height="30" as="geometry"/>
                </mxCell>
                <mxCell id="syGjKZxySs55ZjiHOy2U-5" value="&lt;div&gt;MFE1-Services&lt;/div&gt;" style="whiteSpace=wrap;html=1;aspect=fixed;" parent="1" vertex="1">
                    <mxGeometry x="550" y="330" width="80" height="80" as="geometry"/>
                </mxCell>
                <mxCell id="syGjKZxySs55ZjiHOy2U-6" value="&lt;div&gt;MFE2-Data Analytics&lt;br&gt;&lt;/div&gt;" style="whiteSpace=wrap;html=1;aspect=fixed;" parent="1" vertex="1">
                    <mxGeometry x="550" y="430" width="80" height="80" as="geometry"/>
                </mxCell>
                <mxCell id="syGjKZxySs55ZjiHOy2U-7" value="&lt;div&gt;1. New React project as parent wrapper&lt;/div&gt;&lt;div&gt;2. Implement TopBar and Footer from Current 360&lt;/div&gt;&lt;div&gt;3. New MFE initializaton for data frontend&lt;br&gt;&lt;/div&gt;" style="text;html=1;align=center;verticalAlign=middle;resizable=0;points=[];autosize=1;strokeColor=none;fillColor=none;" parent="1" vertex="1">
                    <mxGeometry x="175" y="483" width="290" height="60" as="geometry"/>
                </mxCell>
                <mxCell id="syGjKZxySs55ZjiHOy2U-9" value="&lt;div&gt;MFE1-Auth Flow&lt;br&gt;&lt;/div&gt;" style="whiteSpace=wrap;html=1;aspect=fixed;" parent="1" vertex="1">
                    <mxGeometry x="550" y="230" width="80" height="80" as="geometry"/>
                </mxCell>
                <mxCell id="syGjKZxySs55ZjiHOy2U-13" value="" style="verticalLabelPosition=bottom;html=1;verticalAlign=top;align=center;strokeColor=none;fillColor=#00BEF2;shape=mxgraph.azure.cloud_services_configuration_file;pointerEvents=1;" parent="1" vertex="1">
                    <mxGeometry x="435" y="310" width="47.5" height="50" as="geometry"/>
                </mxCell>
                <mxCell id="syGjKZxySs55ZjiHOy2U-15" value="Entrypoint 1" style="text;html=1;align=center;verticalAlign=middle;resizable=0;points=[];autosize=1;strokeColor=none;fillColor=none;" parent="1" vertex="1">
                    <mxGeometry x="415" y="368" width="90" height="30" as="geometry"/>
                </mxCell>
                <mxCell id="syGjKZxySs55ZjiHOy2U-16" value="Entrypoint 2" style="text;html=1;align=center;verticalAlign=middle;resizable=0;points=[];autosize=1;strokeColor=none;fillColor=none;" parent="1" vertex="1">
                    <mxGeometry x="415" y="390" width="90" height="30" as="geometry"/>
                </mxCell>
                <mxCell id="syGjKZxySs55ZjiHOy2U-17" value="Entrypoint 3" style="text;html=1;align=center;verticalAlign=middle;resizable=0;points=[];autosize=1;strokeColor=none;fillColor=none;" parent="1" vertex="1">
                    <mxGeometry x="415" y="410" width="90" height="30" as="geometry"/>
                </mxCell>
                <mxCell id="syGjKZxySs55ZjiHOy2U-18" value="http://domain" style="text;html=1;align=center;verticalAlign=middle;resizable=0;points=[];autosize=1;strokeColor=none;fillColor=none;" parent="1" vertex="1">
                    <mxGeometry x="235" y="280" width="90" height="30" as="geometry"/>
                </mxCell>
                <mxCell id="syGjKZxySs55ZjiHOy2U-22" value="&lt;div align=&quot;left&quot;&gt;1. Org Selector&lt;/div&gt;&lt;div align=&quot;left&quot;&gt;2. Login &lt;br&gt;&lt;/div&gt;" style="rounded=1;whiteSpace=wrap;html=1;dashed=1;align=left;" parent="1" vertex="1">
                    <mxGeometry x="640" y="230" width="120" height="80" as="geometry"/>
                </mxCell>
                <mxCell id="syGjKZxySs55ZjiHOy2U-23" value="&lt;div align=&quot;left&quot;&gt;&lt;br&gt;&lt;/div&gt;" style="rounded=1;whiteSpace=wrap;html=1;dashed=1;align=left;" parent="1" vertex="1">
                    <mxGeometry x="640" y="330" width="120" height="80" as="geometry"/>
                </mxCell>
                <mxCell id="syGjKZxySs55ZjiHOy2U-24" value="" style="rounded=1;whiteSpace=wrap;html=1;dashed=1;" parent="1" vertex="1">
                    <mxGeometry x="640" y="430" width="120" height="80" as="geometry"/>
                </mxCell>
            </root>
        </mxGraphModel>
    </diagram>
    <diagram id="3zlXvs7iBzXkHEHgSkll" name="Project Overview">
        <mxGraphModel dx="1463" dy="434" grid="1" gridSize="10" guides="1" tooltips="1" connect="1" arrows="1" fold="1" page="1" pageScale="1" pageWidth="850" pageHeight="1100" math="0" shadow="0">
            <root>
                <mxCell id="0"/>
                <mxCell id="1" parent="0"/>
                <mxCell id="GQc-_wSePjDTncjhrnHl-2" value="&lt;font style=&quot;font-size: 15px&quot;&gt;&lt;b&gt;MFE with Turborepo&amp;nbsp;&lt;/b&gt;&lt;/font&gt;" style="rounded=0;whiteSpace=wrap;html=1;" parent="1" vertex="1">
                    <mxGeometry x="40" y="260" width="200" height="30" as="geometry"/>
                </mxCell>
                <mxCell id="GQc-_wSePjDTncjhrnHl-4" value="" style="rounded=0;whiteSpace=wrap;html=1;" parent="1" vertex="1">
                    <mxGeometry x="-220" y="420" width="370" height="160" as="geometry"/>
                </mxCell>
                <mxCell id="GQc-_wSePjDTncjhrnHl-6" value="MFE_Auth" style="rounded=0;whiteSpace=wrap;html=1;" parent="1" vertex="1">
                    <mxGeometry x="-200" y="510" width="90" height="30" as="geometry"/>
                </mxCell>
                <mxCell id="GQc-_wSePjDTncjhrnHl-7" value="ikure-360 ( container )" style="rounded=0;whiteSpace=wrap;html=1;" parent="1" vertex="1">
                    <mxGeometry x="-110" y="450" width="165" height="30" as="geometry"/>
                </mxCell>
                <mxCell id="GQc-_wSePjDTncjhrnHl-9" value="MFE_Service" style="rounded=0;whiteSpace=wrap;html=1;" parent="1" vertex="1">
                    <mxGeometry x="-80" y="510" width="90" height="30" as="geometry"/>
                </mxCell>
                <mxCell id="GQc-_wSePjDTncjhrnHl-10" value="MFE_DataSphere" style="rounded=0;whiteSpace=wrap;html=1;" parent="1" vertex="1">
                    <mxGeometry x="40" y="510" width="100" height="30" as="geometry"/>
                </mxCell>
                <mxCell id="GQc-_wSePjDTncjhrnHl-14" value="apps workspace" style="rounded=0;whiteSpace=wrap;html=1;" parent="1" vertex="1">
                    <mxGeometry x="-220" y="380" width="120" height="30" as="geometry"/>
                </mxCell>
                <mxCell id="GQc-_wSePjDTncjhrnHl-15" value="" style="rounded=0;whiteSpace=wrap;html=1;" parent="1" vertex="1">
                    <mxGeometry x="-220" y="760" width="370" height="240" as="geometry"/>
                </mxCell>
                <mxCell id="GQc-_wSePjDTncjhrnHl-16" value="uikit" style="rounded=0;whiteSpace=wrap;html=1;" parent="1" vertex="1">
                    <mxGeometry x="-210" y="780" width="120" height="30" as="geometry"/>
                </mxCell>
                <mxCell id="GQc-_wSePjDTncjhrnHl-17" value="prettier-config" style="rounded=0;whiteSpace=wrap;html=1;" parent="1" vertex="1">
                    <mxGeometry x="-80" y="870" width="120" height="30" as="geometry"/>
                </mxCell>
                <mxCell id="GQc-_wSePjDTncjhrnHl-18" value="browserlist" style="rounded=0;whiteSpace=wrap;html=1;" parent="1" vertex="1">
                    <mxGeometry x="-200" y="870" width="120" height="30" as="geometry"/>
                </mxCell>
                <mxCell id="GQc-_wSePjDTncjhrnHl-19" value="shared configs pkg" style="rounded=0;whiteSpace=wrap;html=1;" parent="1" vertex="1">
                    <mxGeometry x="-110" y="830" width="165" height="30" as="geometry"/>
                </mxCell>
                <mxCell id="GQc-_wSePjDTncjhrnHl-20" value="hooks" style="rounded=0;whiteSpace=wrap;html=1;" parent="1" vertex="1">
                    <mxGeometry x="-100" y="780" width="130" height="30" as="geometry"/>
                </mxCell>
                <mxCell id="GQc-_wSePjDTncjhrnHl-21" value="eslint-config" style="rounded=0;whiteSpace=wrap;html=1;" parent="1" vertex="1">
                    <mxGeometry x="-200" y="900" width="120" height="30" as="geometry"/>
                </mxCell>
                <mxCell id="GQc-_wSePjDTncjhrnHl-22" value="tsconfig" style="rounded=0;whiteSpace=wrap;html=1;" parent="1" vertex="1">
                    <mxGeometry x="-200" y="930" width="120" height="30" as="geometry"/>
                </mxCell>
                <mxCell id="GQc-_wSePjDTncjhrnHl-23" value="axios-wrapper" style="rounded=0;whiteSpace=wrap;html=1;" parent="1" vertex="1">
                    <mxGeometry x="-200" y="960" width="120" height="30" as="geometry"/>
                </mxCell>
                <mxCell id="GQc-_wSePjDTncjhrnHl-24" value="babel-config" style="rounded=0;whiteSpace=wrap;html=1;" parent="1" vertex="1">
                    <mxGeometry x="-80" y="900" width="120" height="30" as="geometry"/>
                </mxCell>
                <mxCell id="GQc-_wSePjDTncjhrnHl-25" value="utils" style="rounded=0;whiteSpace=wrap;html=1;" parent="1" vertex="1">
                    <mxGeometry x="20" y="780" width="110" height="30" as="geometry"/>
                </mxCell>
                <mxCell id="GQc-_wSePjDTncjhrnHl-26" value="packages workspace" style="rounded=0;whiteSpace=wrap;html=1;" parent="1" vertex="1">
                    <mxGeometry x="-220" y="720" width="130" height="30" as="geometry"/>
                </mxCell>
                <mxCell id="GQc-_wSePjDTncjhrnHl-27" value="&lt;font style=&quot;font-size: 8px&quot;&gt;Public&lt;/font&gt;" style="text;html=1;strokeColor=none;fillColor=none;align=center;verticalAlign=middle;whiteSpace=wrap;rounded=0;" parent="1" vertex="1">
                    <mxGeometry x="-190" y="550" width="60" height="10" as="geometry"/>
                </mxCell>
                <mxCell id="GQc-_wSePjDTncjhrnHl-28" value="&lt;font style=&quot;font-size: 6px&quot;&gt;360-portal except Dashboard Screens&lt;/font&gt;" style="text;html=1;strokeColor=none;fillColor=none;align=center;verticalAlign=middle;whiteSpace=wrap;rounded=0;" parent="1" vertex="1">
                    <mxGeometry x="-90" y="540" width="110" height="30" as="geometry"/>
                </mxCell>
                <mxCell id="GQc-_wSePjDTncjhrnHl-30" value="jest-config" style="rounded=0;whiteSpace=wrap;html=1;" parent="1" vertex="1">
                    <mxGeometry x="-80" y="930" width="120" height="30" as="geometry"/>
                </mxCell>
                <mxCell id="GQc-_wSePjDTncjhrnHl-31" value="uikit" style="rounded=0;whiteSpace=wrap;html=1;" parent="1" vertex="1">
                    <mxGeometry x="320" y="750" width="120" height="30" as="geometry"/>
                </mxCell>
                <mxCell id="GQc-_wSePjDTncjhrnHl-32" value="&lt;h1 style=&quot;font-size: 16px&quot;&gt;Uikit&lt;br&gt;&lt;font style=&quot;font-size: 16px&quot;&gt;tsup used for creating react component lib&lt;/font&gt;&lt;/h1&gt;" style="text;html=1;strokeColor=none;fillColor=none;spacing=5;spacingTop=-20;whiteSpace=wrap;overflow=hidden;rounded=0;fontSize=15;" parent="1" vertex="1">
                    <mxGeometry x="461" y="740" width="190" height="60" as="geometry"/>
                </mxCell>
                <mxCell id="GQc-_wSePjDTncjhrnHl-33" value="" style="rounded=0;whiteSpace=wrap;html=1;" parent="1" vertex="1">
                    <mxGeometry x="-220" y="1070" width="130" height="150" as="geometry"/>
                </mxCell>
                <mxCell id="GQc-_wSePjDTncjhrnHl-34" value="husky" style="rounded=0;whiteSpace=wrap;html=1;" parent="1" vertex="1">
                    <mxGeometry x="-215" y="1085" width="120" height="30" as="geometry"/>
                </mxCell>
                <mxCell id="GQc-_wSePjDTncjhrnHl-35" value="commitlint" style="rounded=0;whiteSpace=wrap;html=1;" parent="1" vertex="1">
                    <mxGeometry x="-215" y="1115" width="120" height="30" as="geometry"/>
                </mxCell>
                <mxCell id="GQc-_wSePjDTncjhrnHl-36" value="changesets" style="rounded=0;whiteSpace=wrap;html=1;" parent="1" vertex="1">
                    <mxGeometry x="-215" y="1145" width="120" height="30" as="geometry"/>
                </mxCell>
                <mxCell id="GQc-_wSePjDTncjhrnHl-37" value="plop.js" style="rounded=0;whiteSpace=wrap;html=1;" parent="1" vertex="1">
                    <mxGeometry x="-215" y="1175" width="120" height="30" as="geometry"/>
                </mxCell>
                <mxCell id="yfuhhGG7nKxt79xp2KUG-1" value="&lt;font style=&quot;font-size: 6px&quot;&gt;&lt;b&gt;for PACKAGE VERSIONING &amp;amp;&amp;nbsp;&lt;/b&gt;&lt;b&gt;Auto Generating CHANGELOG&lt;/b&gt;&lt;b&gt;&lt;br&gt;&lt;br&gt;&lt;/b&gt;&lt;/font&gt;" style="text;html=1;strokeColor=none;fillColor=none;align=center;verticalAlign=middle;whiteSpace=wrap;rounded=0;" parent="1" vertex="1">
                    <mxGeometry x="-70" y="1152.5" width="100" height="15" as="geometry"/>
                </mxCell>
                <mxCell id="yfuhhGG7nKxt79xp2KUG-2" value="&lt;font style=&quot;font-size: 6px&quot;&gt;&lt;b&gt;Autogenerate MFE's&lt;br&gt;&lt;/b&gt;&lt;/font&gt;" style="text;html=1;strokeColor=none;fillColor=none;align=center;verticalAlign=middle;whiteSpace=wrap;rounded=0;" parent="1" vertex="1">
                    <mxGeometry x="-70" y="1182.5" width="100" height="15" as="geometry"/>
                </mxCell>
                <mxCell id="l2PHfeVEgTV7MBw8jGPg-1" value="webpack-config" style="rounded=0;whiteSpace=wrap;html=1;" parent="1" vertex="1">
                    <mxGeometry x="-80" y="960" width="120" height="30" as="geometry"/>
                </mxCell>
                <mxCell id="l2PHfeVEgTV7MBw8jGPg-2" value="&lt;font style=&quot;font-size: 6px&quot;&gt;&lt;b&gt;Adds git hooks&amp;nbsp;&lt;br&gt;&lt;/b&gt;&lt;/font&gt;" style="text;html=1;strokeColor=none;fillColor=none;align=center;verticalAlign=middle;whiteSpace=wrap;rounded=0;" parent="1" vertex="1">
                    <mxGeometry x="-70" y="1092.5" width="100" height="15" as="geometry"/>
                </mxCell>
            </root>
        </mxGraphModel>
    </diagram>
    <diagram id="stJXQAsCf-R82bwIfsKI" name="Product Techstack">
        <mxGraphModel dx="1463" dy="434" grid="1" gridSize="10" guides="1" tooltips="1" connect="1" arrows="1" fold="1" page="1" pageScale="1" pageWidth="850" pageHeight="1100" math="0" shadow="0">
            <root>
                <mxCell id="0"/>
                <mxCell id="1" parent="0"/>
                <mxCell id="64BvRxRJMHe7PknBcXZ6-2" value="&lt;font style=&quot;font-size: 25px;&quot;&gt;&lt;b style=&quot;font-size: 25px;&quot;&gt;Tech Stack&lt;/b&gt;&lt;/font&gt;" style="text;html=1;strokeColor=#d6b656;fillColor=#fff2cc;align=center;verticalAlign=middle;whiteSpace=wrap;rounded=0;fontSize=25;" parent="1" vertex="1">
                    <mxGeometry x="300" y="30" width="310" height="40" as="geometry"/>
                </mxCell>
                <mxCell id="64BvRxRJMHe7PknBcXZ6-3" value="&lt;font style=&quot;font-size: 16px&quot;&gt;&lt;b&gt;State management&lt;/b&gt;&lt;/font&gt;" style="text;html=1;strokeColor=none;fillColor=none;align=center;verticalAlign=middle;whiteSpace=wrap;rounded=0;" parent="1" vertex="1">
                    <mxGeometry x="140" y="240" width="200" height="30" as="geometry"/>
                </mxCell>
                <mxCell id="64BvRxRJMHe7PknBcXZ6-4" value="&lt;font style=&quot;font-size: 16px&quot;&gt;&lt;b&gt;Routing&amp;nbsp;&lt;/b&gt;&lt;/font&gt;" style="text;html=1;strokeColor=none;fillColor=none;align=center;verticalAlign=middle;whiteSpace=wrap;rounded=0;" parent="1" vertex="1">
                    <mxGeometry x="140" y="290" width="200" height="30" as="geometry"/>
                </mxCell>
                <mxCell id="64BvRxRJMHe7PknBcXZ6-5" value="&lt;font style=&quot;font-size: 16px&quot;&gt;&lt;b&gt;API / Data Fetching&lt;/b&gt;&lt;/font&gt;" style="text;html=1;strokeColor=none;fillColor=none;align=center;verticalAlign=middle;whiteSpace=wrap;rounded=0;" parent="1" vertex="1">
                    <mxGeometry x="140" y="330" width="200" height="30" as="geometry"/>
                </mxCell>
                <mxCell id="64BvRxRJMHe7PknBcXZ6-6" value="&lt;font style=&quot;font-size: 16px&quot;&gt;&lt;b&gt;Forms Library&lt;/b&gt;&lt;/font&gt;" style="text;html=1;strokeColor=none;fillColor=none;align=center;verticalAlign=middle;whiteSpace=wrap;rounded=0;" parent="1" vertex="1">
                    <mxGeometry x="140" y="380" width="200" height="30" as="geometry"/>
                </mxCell>
                <mxCell id="64BvRxRJMHe7PknBcXZ6-7" value="&lt;font style=&quot;font-size: 16px&quot;&gt;&lt;b&gt;Data validation&lt;/b&gt;&lt;/font&gt;" style="text;html=1;strokeColor=none;fillColor=none;align=center;verticalAlign=middle;whiteSpace=wrap;rounded=0;" parent="1" vertex="1">
                    <mxGeometry x="140" y="420" width="200" height="30" as="geometry"/>
                </mxCell>
                <mxCell id="64BvRxRJMHe7PknBcXZ6-8" value="&lt;font style=&quot;font-size: 16px&quot;&gt;&lt;b&gt;Visualizations&lt;/b&gt;&lt;/font&gt;" style="text;html=1;strokeColor=none;fillColor=none;align=center;verticalAlign=middle;whiteSpace=wrap;rounded=0;" parent="1" vertex="1">
                    <mxGeometry x="140" y="470" width="200" height="30" as="geometry"/>
                </mxCell>
                <mxCell id="64BvRxRJMHe7PknBcXZ6-9" value="&lt;font style=&quot;font-size: 16px&quot;&gt;&lt;b&gt;Iteractive Feedback System&lt;/b&gt;&lt;/font&gt;" style="text;html=1;strokeColor=none;fillColor=none;align=center;verticalAlign=middle;whiteSpace=wrap;rounded=0;" parent="1" vertex="1">
                    <mxGeometry x="140" y="520" width="200" height="30" as="geometry"/>
                </mxCell>
                <mxCell id="64BvRxRJMHe7PknBcXZ6-10" value="&lt;font style=&quot;font-size: 14px&quot;&gt;loader, toaster, confirmation modal&lt;/font&gt;" style="text;html=1;strokeColor=none;fillColor=none;align=center;verticalAlign=middle;whiteSpace=wrap;rounded=0;" parent="1" vertex="1">
                    <mxGeometry x="-50" y="520" width="200" height="30" as="geometry"/>
                </mxCell>
                <mxCell id="64BvRxRJMHe7PknBcXZ6-11" value="&lt;font style=&quot;font-size: 16px&quot;&gt;&lt;b&gt;Redux / Zustand&lt;/b&gt;&lt;/font&gt;" style="text;html=1;strokeColor=none;fillColor=none;align=center;verticalAlign=middle;whiteSpace=wrap;rounded=0;" parent="1" vertex="1">
                    <mxGeometry x="440" y="240" width="200" height="30" as="geometry"/>
                </mxCell>
                <mxCell id="64BvRxRJMHe7PknBcXZ6-12" value="&lt;font style=&quot;font-size: 16px&quot;&gt;&lt;b&gt;RRD v6&lt;/b&gt;&lt;/font&gt;" style="text;html=1;strokeColor=none;fillColor=none;align=center;verticalAlign=middle;whiteSpace=wrap;rounded=0;" parent="1" vertex="1">
                    <mxGeometry x="410" y="280" width="200" height="30" as="geometry"/>
                </mxCell>
                <mxCell id="64BvRxRJMHe7PknBcXZ6-13" value="&lt;font style=&quot;font-size: 16px&quot;&gt;&lt;b&gt;React Query / RTK Query&lt;/b&gt;&lt;/font&gt;" style="text;html=1;strokeColor=none;fillColor=none;align=center;verticalAlign=middle;whiteSpace=wrap;rounded=0;" parent="1" vertex="1">
                    <mxGeometry x="470" y="320" width="200" height="30" as="geometry"/>
                </mxCell>
                <mxCell id="64BvRxRJMHe7PknBcXZ6-14" value="&lt;font style=&quot;font-size: 16px&quot;&gt;&lt;b&gt;React hook form&lt;/b&gt;&lt;/font&gt;" style="text;html=1;strokeColor=none;fillColor=none;align=center;verticalAlign=middle;whiteSpace=wrap;rounded=0;" parent="1" vertex="1">
                    <mxGeometry x="440" y="380" width="200" height="30" as="geometry"/>
                </mxCell>
                <mxCell id="64BvRxRJMHe7PknBcXZ6-15" value="&lt;font style=&quot;font-size: 16px&quot;&gt;&lt;b&gt;Zod&lt;/b&gt;&lt;/font&gt;" style="text;html=1;strokeColor=none;fillColor=none;align=center;verticalAlign=middle;whiteSpace=wrap;rounded=0;" parent="1" vertex="1">
                    <mxGeometry x="390" y="430" width="200" height="30" as="geometry"/>
                </mxCell>
                <mxCell id="64BvRxRJMHe7PknBcXZ6-16" value="&lt;font style=&quot;font-size: 16px&quot;&gt;&lt;b&gt;React-hot-toast / React spinners&lt;/b&gt;&lt;/font&gt;" style="text;html=1;strokeColor=none;fillColor=none;align=center;verticalAlign=middle;whiteSpace=wrap;rounded=0;" parent="1" vertex="1">
                    <mxGeometry x="470" y="510" width="250" height="30" as="geometry"/>
                </mxCell>
                <mxCell id="64BvRxRJMHe7PknBcXZ6-17" value="&lt;font style=&quot;font-size: 16px&quot;&gt;&lt;b&gt;UI&amp;nbsp;&lt;/b&gt;&lt;/font&gt;" style="text;html=1;strokeColor=none;fillColor=none;align=center;verticalAlign=middle;whiteSpace=wrap;rounded=0;" parent="1" vertex="1">
                    <mxGeometry x="130" y="200" width="200" height="30" as="geometry"/>
                </mxCell>
                <mxCell id="64BvRxRJMHe7PknBcXZ6-19" value="&lt;font style=&quot;font-size: 16px&quot;&gt;&lt;b&gt;Icons&lt;/b&gt;&lt;/font&gt;" style="text;html=1;strokeColor=none;fillColor=none;align=center;verticalAlign=middle;whiteSpace=wrap;rounded=0;" parent="1" vertex="1">
                    <mxGeometry x="140" y="590" width="200" height="30" as="geometry"/>
                </mxCell>
                <mxCell id="64BvRxRJMHe7PknBcXZ6-20" value="&lt;font style=&quot;font-size: 16px&quot;&gt;&lt;b&gt;React Icons&lt;/b&gt;&lt;/font&gt;" style="text;html=1;strokeColor=none;fillColor=none;align=center;verticalAlign=middle;whiteSpace=wrap;rounded=0;" parent="1" vertex="1">
                    <mxGeometry x="425" y="580" width="200" height="30" as="geometry"/>
                </mxCell>
                <mxCell id="64BvRxRJMHe7PknBcXZ6-21" value="&lt;font style=&quot;font-size: 16px&quot;&gt;&lt;b&gt;Mantine UI&amp;nbsp;&lt;/b&gt;&lt;/font&gt;" style="text;html=1;strokeColor=none;fillColor=none;align=center;verticalAlign=middle;whiteSpace=wrap;rounded=0;" parent="1" vertex="1">
                    <mxGeometry x="425" y="200" width="200" height="30" as="geometry"/>
                </mxCell>
                <mxCell id="64BvRxRJMHe7PknBcXZ6-22" value="&lt;font style=&quot;font-size: 16px&quot;&gt;&lt;b&gt;UI Styles&lt;/b&gt;&lt;/font&gt;" style="text;html=1;strokeColor=none;fillColor=none;align=center;verticalAlign=middle;whiteSpace=wrap;rounded=0;" parent="1" vertex="1">
                    <mxGeometry x="130" y="150" width="200" height="30" as="geometry"/>
                </mxCell>
                <mxCell id="64BvRxRJMHe7PknBcXZ6-23" value="&lt;font style=&quot;font-size: 16px&quot;&gt;&lt;b&gt;Styled components&lt;/b&gt;&lt;/font&gt;" style="text;html=1;strokeColor=none;fillColor=none;align=center;verticalAlign=middle;whiteSpace=wrap;rounded=0;" parent="1" vertex="1">
                    <mxGeometry x="450" y="150" width="200" height="30" as="geometry"/>
                </mxCell>
                <mxCell id="64BvRxRJMHe7PknBcXZ6-24" value="&lt;font style=&quot;font-size: 16px&quot;&gt;&lt;b&gt;Charts.js&lt;/b&gt;&lt;/font&gt;" style="text;html=1;strokeColor=none;fillColor=none;align=center;verticalAlign=middle;whiteSpace=wrap;rounded=0;" parent="1" vertex="1">
                    <mxGeometry x="410" y="470" width="200" height="30" as="geometry"/>
                </mxCell>
            </root>
        </mxGraphModel>
    </diagram>
    <diagram id="_1d2fMApmWIFgXpv2xJS" name="CI/CD">
        <mxGraphModel dx="1463" dy="1534" grid="1" gridSize="10" guides="1" tooltips="1" connect="1" arrows="1" fold="1" page="1" pageScale="1" pageWidth="850" pageHeight="1100" math="0" shadow="0">
            <root>
                <mxCell id="0"/>
                <mxCell id="1" parent="0"/>
                <mxCell id="WAEl-lcSAXjQldznnCHa-1" value="Actor" style="shape=umlActor;verticalLabelPosition=bottom;verticalAlign=top;html=1;outlineConnect=0;" parent="1" vertex="1">
                    <mxGeometry x="320" y="270" width="30" height="60" as="geometry"/>
                </mxCell>
                <mxCell id="WAEl-lcSAXjQldznnCHa-2" value="" style="rounded=0;whiteSpace=wrap;html=1;" parent="1" vertex="1">
                    <mxGeometry x="382.5" y="200" width="120" height="40" as="geometry"/>
                </mxCell>
                <mxCell id="WAEl-lcSAXjQldznnCHa-3" value="apps workspace" style="text;html=1;strokeColor=none;fillColor=none;align=center;verticalAlign=middle;whiteSpace=wrap;rounded=0;" parent="1" vertex="1">
                    <mxGeometry x="402.5" y="205" width="90" height="30" as="geometry"/>
                </mxCell>
                <mxCell id="WAEl-lcSAXjQldznnCHa-5" value="" style="rounded=0;whiteSpace=wrap;html=1;" parent="1" vertex="1">
                    <mxGeometry x="385" y="310" width="120" height="40" as="geometry"/>
                </mxCell>
                <mxCell id="WAEl-lcSAXjQldznnCHa-4" value="packages workspace" style="text;html=1;strokeColor=none;fillColor=none;align=center;verticalAlign=middle;whiteSpace=wrap;rounded=0;" parent="1" vertex="1">
                    <mxGeometry x="400" y="315" width="85" height="30" as="geometry"/>
                </mxCell>
                <mxCell id="WAEl-lcSAXjQldznnCHa-7" value="" style="rounded=0;whiteSpace=wrap;html=1;" parent="1" vertex="1">
                    <mxGeometry x="385" y="420" width="120" height="40" as="geometry"/>
                </mxCell>
                <mxCell id="WAEl-lcSAXjQldznnCHa-6" value="root files" style="text;html=1;strokeColor=none;fillColor=none;align=center;verticalAlign=middle;whiteSpace=wrap;rounded=0;" parent="1" vertex="1">
                    <mxGeometry x="395" y="425" width="85" height="30" as="geometry"/>
                </mxCell>
                <mxCell id="WAEl-lcSAXjQldznnCHa-9" value="auth-mfe.yml" style="text;html=1;strokeColor=none;fillColor=none;align=center;verticalAlign=middle;whiteSpace=wrap;rounded=0;" parent="1" vertex="1">
                    <mxGeometry x="575" y="150" width="90" height="30" as="geometry"/>
                </mxCell>
                <mxCell id="WAEl-lcSAXjQldznnCHa-10" value="root.yml" style="text;html=1;strokeColor=none;fillColor=none;align=center;verticalAlign=middle;whiteSpace=wrap;rounded=0;" parent="1" vertex="1">
                    <mxGeometry x="575" y="430" width="90" height="30" as="geometry"/>
                </mxCell>
                <mxCell id="WAEl-lcSAXjQldznnCHa-11" value="shell-mfe.yml" style="text;html=1;strokeColor=none;fillColor=none;align=center;verticalAlign=middle;whiteSpace=wrap;rounded=0;" parent="1" vertex="1">
                    <mxGeometry x="575" y="190" width="90" height="30" as="geometry"/>
                </mxCell>
                <mxCell id="WAEl-lcSAXjQldznnCHa-12" value="services-mfe.yml" style="text;html=1;strokeColor=none;fillColor=none;align=center;verticalAlign=middle;whiteSpace=wrap;rounded=0;" parent="1" vertex="1">
                    <mxGeometry x="575" y="235" width="100" height="30" as="geometry"/>
                </mxCell>
                <mxCell id="WAEl-lcSAXjQldznnCHa-13" value="package.yml" style="text;html=1;strokeColor=none;fillColor=none;align=center;verticalAlign=middle;whiteSpace=wrap;rounded=0;" parent="1" vertex="1">
                    <mxGeometry x="575" y="315" width="100" height="30" as="geometry"/>
                </mxCell>
                <mxCell id="WAEl-lcSAXjQldznnCHa-14" value="Requirements for &lt;b&gt;MFE&lt;/b&gt; need to be Independently" style="text;html=1;align=center;verticalAlign=middle;whiteSpace=wrap;rounded=0;" parent="1" vertex="1">
                    <mxGeometry x="120" y="860" width="270" height="30" as="geometry"/>
                </mxCell>
                <mxCell id="WAEl-lcSAXjQldznnCHa-15" value="&lt;div style=&quot;text-align: center&quot;&gt;&lt;br&gt;&lt;/div&gt;&lt;ol&gt;&lt;li&gt;&lt;span style=&quot;text-align: center&quot;&gt;scalable&lt;/span&gt;&lt;br&gt;&lt;/li&gt;&lt;li&gt;&lt;span style=&quot;text-align: center&quot;&gt;deployable&lt;/span&gt;&lt;/li&gt;&lt;li&gt;&lt;span style=&quot;text-align: center&quot;&gt;maintainable ( tech independent)&amp;nbsp;&lt;/span&gt;&lt;/li&gt;&lt;li&gt;bounded context&lt;/li&gt;&lt;/ol&gt;" style="text;html=1;strokeColor=none;fillColor=none;align=left;verticalAlign=middle;whiteSpace=wrap;rounded=0;" parent="1" vertex="1">
                    <mxGeometry x="117.5" y="890" width="240" height="90" as="geometry"/>
                </mxCell>
                <mxCell id="WAEl-lcSAXjQldznnCHa-16" value="&lt;div style=&quot;text-align: center&quot;&gt;&lt;span&gt;&lt;br&gt;&lt;/span&gt;&lt;/div&gt;&lt;ol&gt;&lt;li&gt;&lt;span&gt;need to ask&lt;/span&gt;&lt;/li&gt;&lt;li&gt;&lt;span style=&quot;text-align: center&quot;&gt;via its own ci.yml script&lt;/span&gt;&lt;/li&gt;&lt;li&gt;&lt;span style=&quot;text-align: center&quot;&gt;as it has its own package.json&lt;/span&gt;&lt;/li&gt;&lt;li&gt;it can has its own&amp;nbsp;&lt;/li&gt;&lt;ol&gt;&lt;li&gt;data store&lt;/li&gt;&lt;li&gt;routing &amp;amp; rbac rules&lt;/li&gt;&lt;li&gt;set of ui components&lt;/li&gt;&lt;/ol&gt;&lt;/ol&gt;" style="text;html=1;strokeColor=none;fillColor=none;align=left;verticalAlign=middle;whiteSpace=wrap;rounded=0;" parent="1" vertex="1">
                    <mxGeometry x="400" y="890" width="240" height="140" as="geometry"/>
                </mxCell>
                <mxCell id="WAEl-lcSAXjQldznnCHa-36" value="&lt;font style=&quot;font-size: 13px&quot;&gt;&lt;b&gt;For changes in packges workspace&lt;/b&gt;&lt;/font&gt;" style="text;html=1;strokeColor=#b85450;fillColor=#f8cecc;align=center;verticalAlign=middle;whiteSpace=wrap;rounded=0;" parent="1" vertex="1">
                    <mxGeometry x="915" y="-150" width="240" height="30" as="geometry"/>
                </mxCell>
                <mxCell id="WAEl-lcSAXjQldznnCHa-37" value="" style="edgeStyle=orthogonalEdgeStyle;rounded=0;orthogonalLoop=1;jettySize=auto;html=1;" parent="1" source="WAEl-lcSAXjQldznnCHa-38" target="WAEl-lcSAXjQldznnCHa-40" edge="1">
                    <mxGeometry relative="1" as="geometry"/>
                </mxCell>
                <mxCell id="WAEl-lcSAXjQldznnCHa-38" value="ikuretechnosoft/uikit" style="text;html=1;strokeColor=#d6b656;fillColor=#fff2cc;align=center;verticalAlign=middle;whiteSpace=wrap;rounded=0;" parent="1" vertex="1">
                    <mxGeometry x="915" y="780" width="120" height="30" as="geometry"/>
                </mxCell>
                <mxCell id="WAEl-lcSAXjQldznnCHa-39" value="Scenario 2" style="text;html=1;strokeColor=#9673a6;fillColor=#e1d5e7;align=center;verticalAlign=middle;whiteSpace=wrap;rounded=0;fontStyle=1" parent="1" vertex="1">
                    <mxGeometry x="915" y="640" width="180" height="30" as="geometry"/>
                </mxCell>
                <mxCell id="WAEl-lcSAXjQldznnCHa-40" value="uikit.yml" style="text;html=1;strokeColor=#82b366;fillColor=#d5e8d4;align=center;verticalAlign=middle;whiteSpace=wrap;rounded=0;" parent="1" vertex="1">
                    <mxGeometry x="1075" y="780" width="100" height="30" as="geometry"/>
                </mxCell>
                <mxCell id="WAEl-lcSAXjQldznnCHa-41" value="&lt;ol&gt;&lt;li&gt;use the custom install action&lt;/li&gt;&lt;li&gt;deploy to github pages / S3&amp;nbsp;&lt;/li&gt;&lt;/ol&gt;" style="text;html=1;strokeColor=#d79b00;fillColor=#ffe6cc;align=left;verticalAlign=middle;whiteSpace=wrap;rounded=0;" parent="1" vertex="1">
                    <mxGeometry x="1235" y="710" width="240" height="50" as="geometry"/>
                </mxCell>
                <mxCell id="WAEl-lcSAXjQldznnCHa-42" value="" style="edgeStyle=orthogonalEdgeStyle;rounded=0;orthogonalLoop=1;jettySize=auto;html=1;" parent="1" source="WAEl-lcSAXjQldznnCHa-43" target="WAEl-lcSAXjQldznnCHa-44" edge="1">
                    <mxGeometry relative="1" as="geometry"/>
                </mxCell>
                <mxCell id="WAEl-lcSAXjQldznnCHa-43" value="ikuretechnosoft/redux" style="text;html=1;strokeColor=#d6b656;fillColor=#fff2cc;align=center;verticalAlign=middle;whiteSpace=wrap;rounded=0;" parent="1" vertex="1">
                    <mxGeometry x="915" y="1030" width="120" height="30" as="geometry"/>
                </mxCell>
                <mxCell id="WAEl-lcSAXjQldznnCHa-44" value="redux.yml" style="text;html=1;strokeColor=#82b366;fillColor=#d5e8d4;align=center;verticalAlign=middle;whiteSpace=wrap;rounded=0;" parent="1" vertex="1">
                    <mxGeometry x="1075" y="1030" width="100" height="30" as="geometry"/>
                </mxCell>
                <mxCell id="WAEl-lcSAXjQldznnCHa-46" value="" style="edgeStyle=orthogonalEdgeStyle;rounded=0;orthogonalLoop=1;jettySize=auto;html=1;" parent="1" source="WAEl-lcSAXjQldznnCHa-47" target="WAEl-lcSAXjQldznnCHa-48" edge="1">
                    <mxGeometry relative="1" as="geometry"/>
                </mxCell>
                <mxCell id="WAEl-lcSAXjQldznnCHa-47" value="ikuretechnosoft/tsconfig" style="text;html=1;strokeColor=#d6b656;fillColor=#fff2cc;align=center;verticalAlign=middle;whiteSpace=wrap;rounded=0;" parent="1" vertex="1">
                    <mxGeometry x="915" y="1180" width="140" height="30" as="geometry"/>
                </mxCell>
                <mxCell id="WAEl-lcSAXjQldznnCHa-48" value="No need of git action" style="text;html=1;strokeColor=#82b366;fillColor=#d5e8d4;align=center;verticalAlign=middle;whiteSpace=wrap;rounded=0;" parent="1" vertex="1">
                    <mxGeometry x="1095" y="1180" width="160" height="30" as="geometry"/>
                </mxCell>
                <mxCell id="WAEl-lcSAXjQldznnCHa-49" value="&lt;ol&gt;&lt;li&gt;checkout to code specifc to package path&lt;/li&gt;&lt;li&gt;use node version from .nvmrc file&lt;/li&gt;&lt;li&gt;install the deps&lt;br&gt;&lt;/li&gt;&lt;li&gt;build the package&lt;br&gt;ie., &lt;i&gt;pnpm run build:lib&lt;/i&gt;&lt;/li&gt;&lt;/ol&gt;" style="text;html=1;strokeColor=#d79b00;fillColor=#ffe6cc;align=left;verticalAlign=middle;whiteSpace=wrap;rounded=0;" parent="1" vertex="1">
                    <mxGeometry x="1595" y="820" width="270" height="90" as="geometry"/>
                </mxCell>
                <mxCell id="WAEl-lcSAXjQldznnCHa-50" value="Reusable github action to consume across all the actions in packages workspace" style="text;html=1;strokeColor=none;fillColor=none;align=center;verticalAlign=middle;whiteSpace=wrap;rounded=0;" parent="1" vertex="1">
                    <mxGeometry x="1595" y="750" width="230" height="30" as="geometry"/>
                </mxCell>
                <mxCell id="WAEl-lcSAXjQldznnCHa-51" value="" style="edgeStyle=orthogonalEdgeStyle;rounded=0;orthogonalLoop=1;jettySize=auto;html=1;" parent="1" source="WAEl-lcSAXjQldznnCHa-52" target="WAEl-lcSAXjQldznnCHa-53" edge="1">
                    <mxGeometry relative="1" as="geometry"/>
                </mxCell>
                <mxCell id="WAEl-lcSAXjQldznnCHa-52" value="ikuretechnosoft/hooks" style="text;html=1;strokeColor=#d6b656;fillColor=#fff2cc;align=center;verticalAlign=middle;whiteSpace=wrap;rounded=0;" parent="1" vertex="1">
                    <mxGeometry x="915" y="1080" width="120" height="30" as="geometry"/>
                </mxCell>
                <mxCell id="WAEl-lcSAXjQldznnCHa-53" value="hooks.yml" style="text;html=1;strokeColor=#82b366;fillColor=#d5e8d4;align=center;verticalAlign=middle;whiteSpace=wrap;rounded=0;" parent="1" vertex="1">
                    <mxGeometry x="1075" y="1080" width="100" height="30" as="geometry"/>
                </mxCell>
                <mxCell id="WAEl-lcSAXjQldznnCHa-55" value="&lt;ol&gt;&lt;li&gt;use the custom install action&lt;/li&gt;&lt;/ol&gt;" style="text;html=1;strokeColor=#d79b00;fillColor=#ffe6cc;align=left;verticalAlign=middle;whiteSpace=wrap;rounded=0;" parent="1" vertex="1">
                    <mxGeometry x="1235" y="980" width="240" height="40" as="geometry"/>
                </mxCell>
                <mxCell id="WAEl-lcSAXjQldznnCHa-57" value="&lt;b&gt;&lt;font style=&quot;font-size: 12px&quot;&gt;Note for point 4&lt;/font&gt;&lt;/b&gt;&lt;br&gt;&lt;br&gt;&lt;span style=&quot;font-size: 12px&quot;&gt;build the entire packages&amp;nbsp;&lt;/span&gt;&lt;span style=&quot;font-size: 11px&quot;&gt;with the help of root level package.json which is configured in turbo.json file&lt;/span&gt;&lt;span style=&quot;font-size: 11px&quot;&gt;&lt;br&gt;&lt;/span&gt;" style="text;whiteSpace=wrap;html=1;fontSize=10;" parent="1" vertex="1">
                    <mxGeometry x="1435" y="340" width="200" height="90" as="geometry"/>
                </mxCell>
                <mxCell id="WAEl-lcSAXjQldznnCHa-59" value="ikuretechnosoft/uikit" style="text;html=1;strokeColor=#d6b656;fillColor=#fff2cc;align=center;verticalAlign=middle;whiteSpace=wrap;rounded=0;" parent="1" vertex="1">
                    <mxGeometry x="915" y="290" width="130" height="30" as="geometry"/>
                </mxCell>
                <mxCell id="WAEl-lcSAXjQldznnCHa-60" value="Scenario 1" style="text;html=1;strokeColor=#9673a6;fillColor=#e1d5e7;align=center;verticalAlign=middle;whiteSpace=wrap;rounded=0;fontStyle=1" parent="1" vertex="1">
                    <mxGeometry x="915" y="180" width="180" height="30" as="geometry"/>
                </mxCell>
                <mxCell id="WAEl-lcSAXjQldznnCHa-61" value="packages.yml" style="text;html=1;strokeColor=#82b366;fillColor=#d5e8d4;align=center;verticalAlign=middle;whiteSpace=wrap;rounded=0;" parent="1" vertex="1">
                    <mxGeometry x="1115" y="290" width="100" height="30" as="geometry"/>
                </mxCell>
                <mxCell id="WAEl-lcSAXjQldznnCHa-64" value="ikuretechnosoft/redux" style="text;html=1;strokeColor=#d6b656;fillColor=#fff2cc;align=center;verticalAlign=middle;whiteSpace=wrap;rounded=0;" parent="1" vertex="1">
                    <mxGeometry x="915" y="330" width="130" height="30" as="geometry"/>
                </mxCell>
                <mxCell id="WAEl-lcSAXjQldznnCHa-66" value="" style="edgeStyle=orthogonalEdgeStyle;rounded=0;orthogonalLoop=1;jettySize=auto;html=1;" parent="1" source="WAEl-lcSAXjQldznnCHa-67" target="WAEl-lcSAXjQldznnCHa-68" edge="1">
                    <mxGeometry relative="1" as="geometry"/>
                </mxCell>
                <mxCell id="WAEl-lcSAXjQldznnCHa-67" value="ikuretechnosoft/tsconfig" style="text;html=1;strokeColor=#d6b656;fillColor=#fff2cc;align=center;verticalAlign=middle;whiteSpace=wrap;rounded=0;" parent="1" vertex="1">
                    <mxGeometry x="915" y="500" width="140" height="30" as="geometry"/>
                </mxCell>
                <mxCell id="WAEl-lcSAXjQldznnCHa-68" value="No need of git action" style="text;html=1;strokeColor=#82b366;fillColor=#d5e8d4;align=center;verticalAlign=middle;whiteSpace=wrap;rounded=0;" parent="1" vertex="1">
                    <mxGeometry x="1115" y="500" width="160" height="30" as="geometry"/>
                </mxCell>
                <mxCell id="WAEl-lcSAXjQldznnCHa-70" value="ikuretechnosoft/hooks" style="text;html=1;strokeColor=#d6b656;fillColor=#fff2cc;align=center;verticalAlign=middle;whiteSpace=wrap;rounded=0;" parent="1" vertex="1">
                    <mxGeometry x="915" y="370" width="130" height="30" as="geometry"/>
                </mxCell>
                <mxCell id="WAEl-lcSAXjQldznnCHa-73" value="&lt;ol&gt;&lt;li&gt;checkout to code specifc to package path&lt;/li&gt;&lt;li&gt;use node version from .nvmrc file&lt;/li&gt;&lt;li&gt;install the deps&lt;br&gt;&lt;/li&gt;&lt;li&gt;build the entire packages workspace&lt;br&gt;ie., &lt;i&gt;pnpm run build:lib&lt;/i&gt;&lt;/li&gt;&lt;/ol&gt;" style="text;html=1;strokeColor=#d79b00;fillColor=#ffe6cc;align=left;verticalAlign=middle;whiteSpace=wrap;rounded=0;" parent="1" vertex="1">
                    <mxGeometry x="1115" y="340" width="270" height="90" as="geometry"/>
                </mxCell>
                <mxCell id="WAEl-lcSAXjQldznnCHa-74" value="&lt;b&gt;&lt;font style=&quot;font-size: 12px&quot;&gt;Then what about shareable configs like this ?&lt;/font&gt;&lt;/b&gt;&lt;br&gt;&lt;br&gt;&lt;font style=&quot;font-size: 10px&quot;&gt;Simplly we can put it like this, the&amp;nbsp;&lt;br&gt;package.json for&amp;nbsp;&lt;span style=&quot;text-align: center&quot;&gt;&lt;b&gt;ikuretechnosoft/tsconfig&lt;/b&gt; doesn't have a&lt;b&gt; build:lib&lt;/b&gt; script&lt;/span&gt;&lt;/font&gt;" style="text;whiteSpace=wrap;html=1;fontSize=10;" parent="1" vertex="1">
                    <mxGeometry x="1315" y="470" width="200" height="90" as="geometry"/>
                </mxCell>
                <mxCell id="WAEl-lcSAXjQldznnCHa-76" value="We would need just 1 cicd script for entire packages workspace" style="text;html=1;strokeColor=none;fillColor=none;align=center;verticalAlign=middle;whiteSpace=wrap;rounded=0;" parent="1" vertex="1">
                    <mxGeometry x="915" y="240" width="340" height="30" as="geometry"/>
                </mxCell>
                <mxCell id="WAEl-lcSAXjQldznnCHa-77" value="&lt;b&gt;&lt;font style=&quot;font-size: 12px&quot;&gt;Note for point 4&lt;/font&gt;&lt;/b&gt;&lt;br&gt;&lt;br&gt;&lt;span style=&quot;font-size: 12px&quot;&gt;build command can be made a bit generic, instead&amp;nbsp;&lt;br&gt;&lt;/span&gt;&lt;span style=&quot;white-space: pre&quot;&gt;&#9;&lt;/span&gt;- pnpm build storybook" style="text;whiteSpace=wrap;html=1;fontSize=10;" parent="1" vertex="1">
                    <mxGeometry x="1595" y="945" width="200" height="90" as="geometry"/>
                </mxCell>
                <mxCell id="WAEl-lcSAXjQldznnCHa-78" value="&lt;ol&gt;&lt;li&gt;checkout to code with its path&lt;/li&gt;&lt;li&gt;set node from .nvmrc&lt;/li&gt;&lt;li&gt;install the deps&lt;/li&gt;&lt;li&gt;build the ts project&lt;/li&gt;&lt;/ol&gt;" style="text;html=1;strokeColor=#d79b00;fillColor=#ffe6cc;align=left;verticalAlign=middle;whiteSpace=wrap;rounded=0;" parent="1" vertex="1">
                    <mxGeometry x="1235" y="1060" width="240" height="90" as="geometry"/>
                </mxCell>
                <mxCell id="WAEl-lcSAXjQldznnCHa-79" value="&lt;span style=&quot;font-size: 12px&quot;&gt;&lt;b&gt;OR&lt;/b&gt;&lt;/span&gt;" style="text;whiteSpace=wrap;html=1;fontSize=10;" parent="1" vertex="1">
                    <mxGeometry x="1335" y="1020" width="20" height="20" as="geometry"/>
                </mxCell>
                <mxCell id="WAEl-lcSAXjQldznnCHa-81" value="&lt;span style=&quot;font-size: 12px&quot;&gt;&lt;b&gt;OR&lt;/b&gt;&lt;/span&gt;" style="text;whiteSpace=wrap;html=1;fontSize=10;" parent="1" vertex="1">
                    <mxGeometry x="1325" y="770" width="20" height="20" as="geometry"/>
                </mxCell>
                <mxCell id="WAEl-lcSAXjQldznnCHa-82" value="&lt;ol&gt;&lt;li&gt;checkout to code with its path&lt;/li&gt;&lt;li&gt;set node from .nvmrc&lt;/li&gt;&lt;li&gt;install the deps&lt;/li&gt;&lt;li&gt;build storybook&lt;/li&gt;&lt;li&gt;deploy to github pages / S3&amp;nbsp;&lt;/li&gt;&lt;/ol&gt;" style="text;html=1;strokeColor=#d79b00;fillColor=#ffe6cc;align=left;verticalAlign=middle;whiteSpace=wrap;rounded=0;" parent="1" vertex="1">
                    <mxGeometry x="1235" y="810" width="240" height="90" as="geometry"/>
                </mxCell>
                <mxCell id="WAEl-lcSAXjQldznnCHa-85" value="" style="endArrow=none;html=1;rounded=0;fontSize=12;" parent="1" edge="1">
                    <mxGeometry width="50" height="50" relative="1" as="geometry">
                        <mxPoint x="870" y="600" as="sourcePoint"/>
                        <mxPoint x="1642.0689655172414" y="600" as="targetPoint"/>
                    </mxGeometry>
                </mxCell>
                <mxCell id="HYIdw3f7VJX-K2niPtKD-1" value="&lt;span style=&quot;font-size: 12px&quot;&gt;&lt;b&gt;Limitaions of this approach&lt;/b&gt;&lt;/span&gt;&lt;br&gt;&lt;div&gt;&lt;ol&gt;&lt;li&gt;&lt;span style=&quot;font-size: 12px&quot;&gt;If we dont really care about packages/(reusable code)&lt;br&gt;&lt;/span&gt;&amp;nbsp;&lt;/li&gt;&lt;li&gt;&lt;span style=&quot;font-size: 12px&quot;&gt;our main focus should be only on mfe's for time being&lt;/span&gt;&lt;/li&gt;&lt;/ol&gt;&lt;/div&gt;&lt;div&gt;&lt;span style=&quot;font-size: 12px&quot;&gt;&lt;br&gt;&lt;/span&gt;&lt;/div&gt;&lt;div&gt;&lt;br&gt;&lt;/div&gt;" style="text;whiteSpace=wrap;html=1;fontSize=10;align=left;" parent="1" vertex="1">
                    <mxGeometry x="1435" y="170" width="200" height="115" as="geometry"/>
                </mxCell>
                <mxCell id="HYIdw3f7VJX-K2niPtKD-2" value="A package specific cicd script for better flexibility" style="text;html=1;strokeColor=none;fillColor=none;align=center;verticalAlign=middle;whiteSpace=wrap;rounded=0;" parent="1" vertex="1">
                    <mxGeometry x="900" y="680" width="285" height="30" as="geometry"/>
                </mxCell>
                <mxCell id="HYIdw3f7VJX-K2niPtKD-3" value="" style="edgeStyle=orthogonalEdgeStyle;rounded=0;orthogonalLoop=1;jettySize=auto;html=1;" parent="1" source="HYIdw3f7VJX-K2niPtKD-4" target="HYIdw3f7VJX-K2niPtKD-5" edge="1">
                    <mxGeometry relative="1" as="geometry"/>
                </mxCell>
                <mxCell id="HYIdw3f7VJX-K2niPtKD-4" value="auth-mfe" style="text;html=1;strokeColor=#d6b656;fillColor=#fff2cc;align=center;verticalAlign=middle;whiteSpace=wrap;rounded=0;" parent="1" vertex="1">
                    <mxGeometry x="117.5" y="680" width="120" height="30" as="geometry"/>
                </mxCell>
                <mxCell id="HYIdw3f7VJX-K2niPtKD-5" value="auth-mfe.yml" style="text;html=1;strokeColor=#82b366;fillColor=#d5e8d4;align=center;verticalAlign=middle;whiteSpace=wrap;rounded=0;" parent="1" vertex="1">
                    <mxGeometry x="277.5" y="680" width="100" height="30" as="geometry"/>
                </mxCell>
                <mxCell id="HYIdw3f7VJX-K2niPtKD-7" value="&lt;ol&gt;&lt;li&gt;checkout to code path for the mfe in apps workspace&lt;/li&gt;&lt;li&gt;set node from .nvmrc&lt;/li&gt;&lt;li&gt;install the deps&lt;/li&gt;&lt;li&gt;build the mfe&lt;/li&gt;&lt;li&gt;deploy to S3&amp;nbsp;&lt;/li&gt;&lt;li&gt;other steps .....&lt;/li&gt;&lt;/ol&gt;" style="text;html=1;strokeColor=#d79b00;fillColor=#ffe6cc;align=left;verticalAlign=middle;whiteSpace=wrap;rounded=0;" parent="1" vertex="1">
                    <mxGeometry x="400" y="712.5" width="260" height="135" as="geometry"/>
                </mxCell>
                <mxCell id="HYIdw3f7VJX-K2niPtKD-8" value="Implementation details" style="text;html=1;strokeColor=none;fillColor=none;align=center;verticalAlign=middle;whiteSpace=wrap;rounded=0;" parent="1" vertex="1">
                    <mxGeometry x="400" y="680" width="145" height="30" as="geometry"/>
                </mxCell>
                <mxCell id="HYIdw3f7VJX-K2niPtKD-9" value="" style="edgeStyle=orthogonalEdgeStyle;rounded=0;orthogonalLoop=1;jettySize=auto;html=1;" parent="1" source="HYIdw3f7VJX-K2niPtKD-10" target="HYIdw3f7VJX-K2niPtKD-11" edge="1">
                    <mxGeometry relative="1" as="geometry"/>
                </mxCell>
                <mxCell id="HYIdw3f7VJX-K2niPtKD-10" value="&lt;ol&gt;&lt;li&gt;&lt;span&gt;Readme.md&lt;/span&gt;&lt;/li&gt;&lt;li&gt;&lt;span&gt;changes to all the files &amp;amp; folders&lt;/span&gt;&lt;/li&gt;&lt;li&gt;&lt;span&gt;plop&lt;/span&gt;&lt;/li&gt;&lt;li&gt;&lt;span&gt;etc&lt;/span&gt;&lt;/li&gt;&lt;/ol&gt;" style="text;html=1;strokeColor=#d6b656;fillColor=#fff2cc;align=left;verticalAlign=middle;whiteSpace=wrap;rounded=0;" parent="1" vertex="1">
                    <mxGeometry x="120" y="1170" width="160" height="90" as="geometry"/>
                </mxCell>
                <mxCell id="HYIdw3f7VJX-K2niPtKD-11" value="root.yml" style="text;html=1;strokeColor=#82b366;fillColor=#d5e8d4;align=center;verticalAlign=middle;whiteSpace=wrap;rounded=0;" parent="1" vertex="1">
                    <mxGeometry x="325" y="1200" width="100" height="30" as="geometry"/>
                </mxCell>
                <mxCell id="HYIdw3f7VJX-K2niPtKD-12" value="&lt;ol&gt;&lt;li&gt;checkout to code at repo level&lt;/li&gt;&lt;li&gt;set node from .nvmrc&lt;/li&gt;&lt;li&gt;install the deps&lt;/li&gt;&lt;/ol&gt;" style="text;html=1;strokeColor=#d79b00;fillColor=#ffe6cc;align=left;verticalAlign=middle;whiteSpace=wrap;rounded=0;" parent="1" vertex="1">
                    <mxGeometry x="440" y="1177.5" width="260" height="75" as="geometry"/>
                </mxCell>
                <mxCell id="HYIdw3f7VJX-K2niPtKD-13" value="Implementation details" style="text;html=1;strokeColor=none;fillColor=none;align=center;verticalAlign=middle;whiteSpace=wrap;rounded=0;" parent="1" vertex="1">
                    <mxGeometry x="440" y="1140" width="145" height="30" as="geometry"/>
                </mxCell>
                <mxCell id="HYIdw3f7VJX-K2niPtKD-14" value="&lt;b&gt;For changes in Root level&lt;/b&gt;" style="text;html=1;align=center;verticalAlign=middle;whiteSpace=wrap;rounded=0;fillColor=#f8cecc;strokeColor=#b85450;" parent="1" vertex="1">
                    <mxGeometry x="120" y="1100" width="270" height="30" as="geometry"/>
                </mxCell>
                <mxCell id="HYIdw3f7VJX-K2niPtKD-16" value="&lt;b&gt;For changes in apps workspace&lt;/b&gt;" style="text;html=1;align=center;verticalAlign=middle;whiteSpace=wrap;rounded=0;fillColor=#f8cecc;strokeColor=#b85450;" parent="1" vertex="1">
                    <mxGeometry x="120" y="600" width="270" height="30" as="geometry"/>
                </mxCell>
                <mxCell id="HYIdw3f7VJX-K2niPtKD-17" value="" style="endArrow=none;html=1;rounded=0;fontSize=12;" parent="1" edge="1">
                    <mxGeometry width="50" height="50" relative="1" as="geometry">
                        <mxPoint x="26.470000000000255" y="1070" as="sourcePoint"/>
                        <mxPoint x="798.5389655172414" y="1070" as="targetPoint"/>
                    </mxGeometry>
                </mxCell>
                <mxCell id="HYIdw3f7VJX-K2niPtKD-18" value="&lt;ol&gt;&lt;li&gt;User makes changes at 3 levels &amp;amp; they need to be addressed at that specific level itself&lt;br&gt;&lt;br&gt;&lt;/li&gt;&lt;li&gt;In our case we need to be address changes at these various levels&lt;/li&gt;&lt;ol&gt;&lt;li&gt;root level&lt;/li&gt;&lt;li&gt;workspace level&lt;/li&gt;&lt;ol&gt;&lt;li&gt;apps&lt;/li&gt;&lt;li&gt;packages&lt;br&gt;&lt;br&gt;&lt;/li&gt;&lt;/ol&gt;&lt;/ol&gt;&lt;li&gt;Most of the people use reusable actions to define there jobs.&amp;nbsp;&lt;br&gt;&lt;br&gt;&lt;/li&gt;&lt;li&gt;Use of destributed remote caching, to speed up the tasks&lt;br&gt;&lt;br&gt;&lt;/li&gt;&lt;li&gt;pnpm as there package manager client, instead of traditional pm's like npm or yarn&lt;/li&gt;&lt;/ol&gt;" style="text;html=1;strokeColor=#d79b00;fillColor=#ffe6cc;align=left;verticalAlign=middle;whiteSpace=wrap;rounded=0;" parent="1" vertex="1">
                    <mxGeometry x="-50" y="180" width="260" height="300" as="geometry"/>
                </mxCell>
                <mxCell id="HYIdw3f7VJX-K2niPtKD-19" value="&lt;b&gt;Common Observations for CICD in monorepos&lt;/b&gt;" style="text;html=1;align=center;verticalAlign=middle;whiteSpace=wrap;rounded=0;" parent="1" vertex="1">
                    <mxGeometry x="-50" y="140" width="270" height="30" as="geometry"/>
                </mxCell>
                <mxCell id="HYIdw3f7VJX-K2niPtKD-21" value="&lt;b&gt;CICD strategies&amp;nbsp;for monorepos&lt;/b&gt;" style="text;html=1;align=center;verticalAlign=middle;whiteSpace=wrap;rounded=0;fillColor=#fff2cc;strokeColor=#d6b656;" parent="1" vertex="1">
                    <mxGeometry x="280" y="40" width="270" height="30" as="geometry"/>
                </mxCell>
                <mxCell id="HYIdw3f7VJX-K2niPtKD-22" value="&lt;font style=&quot;font-size: 13px&quot;&gt;&lt;b&gt;Example for CICD in packages workspace&lt;/b&gt;&lt;/font&gt;" style="text;html=1;align=center;verticalAlign=middle;whiteSpace=wrap;rounded=0;fillColor=#d5e8d4;strokeColor=#82b366;" parent="1" vertex="1">
                    <mxGeometry x="915" y="110" width="270" height="30" as="geometry"/>
                </mxCell>
                <mxCell id="HYIdw3f7VJX-K2niPtKD-23" value="Packages workspace need to be handled diffrently compared to apps workspace ( mfe's)." style="text;html=1;strokeColor=none;fillColor=none;align=center;verticalAlign=middle;whiteSpace=wrap;rounded=0;" parent="1" vertex="1">
                    <mxGeometry x="890" y="-90" width="525" height="30" as="geometry"/>
                </mxCell>
                <mxCell id="HYIdw3f7VJX-K2niPtKD-24" value="&lt;ol&gt;&lt;li&gt;some packages which needs to be shared can be directly consumed as source&amp;nbsp;&lt;/li&gt;&lt;ol&gt;&lt;li&gt;tsconfig.json&lt;/li&gt;&lt;li&gt;general config&lt;br&gt;&lt;br&gt;&lt;/li&gt;&lt;/ol&gt;&lt;li&gt;some packages need to have a build step, even before they are exposed for other mfe's to consume&lt;/li&gt;&lt;/ol&gt;" style="text;html=1;strokeColor=#d79b00;fillColor=#ffe6cc;align=left;verticalAlign=middle;whiteSpace=wrap;rounded=0;" parent="1" vertex="1">
                    <mxGeometry x="907.5" y="-50" width="502.5" height="110" as="geometry"/>
                </mxCell>
            </root>
        </mxGraphModel>
    </diagram>
</mxfile>